<svg xmlns="http://www.w3.org/2000/svg" version="1.1" xmlns:xlink="http://www.w3.org/1999/xlink" xmlns:svgjs="http://svgjs.dev/svgjs" width="2000" height="2250" viewBox="0 0 2000 2250"><g transform="matrix(1,0,0,1,0.00034163026134592656,0)"><svg viewBox="0 0 320 360" data-background-color="#ede1d1" preserveAspectRatio="xMidYMid meet" height="2250" width="2000" xmlns="http://www.w3.org/2000/svg" xmlns:xlink="http://www.w3.org/1999/xlink"><g id="tight-bounds" transform="matrix(1,0,0,1,0.00005466084189720277,0)"><svg viewBox="0 0 320 360" height="360" width="320"><g><svg></svg></g><g><svg viewBox="0 0 320 360" height="360" width="320"><g><path transform="translate(-119.39272,-98.31927) scale(5.58313,5.58313)" d="M36.7 23.5c0-0.2 0.1-0.4 0.3-0.4 0.2 0 0.4 0.1 0.4 0.4 0.1 0 0.3 0 0.4-0.1 0.4 0 0.8-0.1 1.1 0 0.3 0.1 0.5 0.1 0.8 0.2 0.3 0.1 0.5 0 0.7-0.1 0.4-0.1 0.7-0.3 1.1-0.4 0.2-0.1 0.3-0.1 0.5-0.1 0.2-0.1 0.4-0.1 0.7-0.2 0.5-0.1 1-0.2 1.4-0.4 0.4-0.2 0.8-0.2 1.2-0.3 0.2 0 0.3-0.1 0.5-0.2 0.1 0 0.1-0.1 0.2-0.2 0.2-0.1 0.3-0.2 0.5-0.1 0.1 0.1 0.3 0.1 0.4 0h0.1c0.6 0 1.2-0.1 1.9 0 0.1 0 0.2 0 0.2 0 0.3-0.2 0.7-0.2 1.1-0.2 0.1 0 0.3 0 0.4 0h0.1c0.4 0 0.8 0 1.1 0.1 0.3 0 0.5 0.1 0.8 0.2 0.3 0 0.5 0 0.8 0.1 0.2 0 0.4 0 0.6 0 0.1 0 0.2 0 0.2 0 0.4 0.1 0.8 0.1 1.2 0.1 0.3 0.1 0.6 0.2 1 0.2 0.1 0 0.2 0 0.3 0 0.1 0 0.2 0.1 0.3 0.1l0.1 0.1c0.4 0 0.7 0.2 1.1 0.2 0.1 0 0.3 0 0.4 0.1 0.3 0.2 0.7 0.3 1.1 0.3 0.2 0 0.3 0.1 0.4 0.2 0.3 0.1 0.5 0.2 0.8 0.3 0.2 0.1 0.4 0 0.6 0.1 0.3 0.1 0.7 0.2 1 0.5 0.2 0.2 0.4 0.2 0.7 0.4 0.1 0 0.2 0.1 0.3 0.2 0.3 0.2 0.6 0.4 0.9 0.5 0.1 0 0.2 0.1 0.3 0.1 0.3 0.2 0.6 0.5 1 0.7 0.2 0.1 0.3 0.2 0.5 0.3h0.1c0.3 0.3 0.7 0.5 1 0.8 0.3 0.3 0.5 0.5 0.9 0.7 0 0 0 0 0 0.1 0.1 0.2 0.2 0.3 0.4 0.4 0.2 0.1 0.3 0.2 0.4 0.3 0.3 0.2 0.6 0.4 0.8 0.6 0.1 0.1 0.2 0.2 0.4 0.4 0.1 0.1 0.2 0.2 0.3 0.2 0.4 0.1 0.6 0.4 0.9 0.7 0.2 0.2 0.5 0.5 0.7 0.7 0.1 0.1 0.2 0.3 0.3 0.5 0.2 0.6 0.5 1.2 0.8 1.7 0 0 0 0.1 0.1 0.2v0.1c0.2 0.2 0.3 0.5 0.5 0.7 0.1 0.1 0.1 0.2 0.2 0.3 0.2 0.3 0.3 0.7 0.5 1 0.3 0.5 0.5 1 0.7 1.5v0.1c0.1 0.2 0.2 0.4 0.3 0.7 0 0.2 0.2 0.4 0.3 0.7 0.1 0.5 0.4 1 0.5 1.6 0 0.1 0.1 0.2 0.1 0.4 0.1 0.3 0.2 0.6 0.3 0.9 0 0.1 0.1 0.2 0.2 0.3 0.2 0.2 0.2 0.4 0.2 0.6-0.1 0.4 0 0.8 0.1 1.2 0 0.1 0 0.2 0 0.4 0.1 0.4 0.2 0.9 0.2 1.3 0 0.1 0 0.3 0 0.4 0 0.3 0.1 0.6 0.3 0.9 0 0.1 0.1 0.1 0.1 0.1 0.1 0.1 0.2 0.3 0.3 0.4 0.1 0.1 0.1 0.1 0.2 0.2 0.2 0.2 0.3 0.4 0.3 0.7 0 0.1-0.1 0.3-0.1 0.4 0 0.1 0 0.3 0.1 0.4 0.1 0.1 0.1 0.2 0.1 0.3 0 0.1-0.1 0.2-0.2 0.2v0c-0.1 0.3-0.5 0.4-0.6 0.7-0.1 0.4-0.2 0.8-0.3 1.2-0.1 0.3-0.1 0.5-0.1 0.8 0 0.3-0.1 0.5-0.1 0.8-0.1 0.4-0.2 0.8-0.3 1.2 0 0.2-0.1 0.4-0.1 0.6 0.1 0.1 0.2 0.2 0.3 0.2 0.2 0.2 0.4 0.4 0.6 0.6 0.1 0.1 0.1 0.2 0 0.2-0.1 0.1-0.2 0.1-0.3 0.1-0.1-0.1-0.3-0.2-0.4-0.2-0.1-0.1-0.3-0.2-0.5-0.1 0 0.2-0.1 0.4-0.1 0.5-0.1 0.2-0.2 0.5-0.2 0.7-0.1 0.4-0.3 0.7-0.4 1.1-0.2 0.5-0.4 0.9-0.6 1.3-0.1 0.2-0.2 0.4-0.3 0.6v0c0 0.3-0.3 0.6-0.4 0.9-0.2 0.4-0.4 0.8-0.6 1.3-0.1 0.2-0.2 0.4-0.3 0.5-0.2 0.5-0.4 0.9-0.7 1.3-0.2 0.3-0.4 0.5-0.6 0.6-0.2 0.2-0.4 0.4-0.6 0.6-0.1 0.1-0.2 0.2-0.3 0.3-0.1 0.1-0.1 0.1-0.2 0.2-0.2 0.3-0.5 0.5-0.7 0.8-0.2 0.2-0.3 0.4-0.6 0.6-0.2 0.2-0.4 0.5-0.7 0.6-0.1 0.1-0.2 0.3-0.3 0.4-0.1 0.1-0.2 0.3-0.3 0.4 0 0.2 0.1 0.4 0.1 0.5 0 0.3-0.3 0.4-0.5 0.2-0.3-0.2-0.3-0.2-0.6 0-0.3 0.2-0.6 0.5-1 0.6-0.1 0-0.1 0.1-0.2 0.1-0.2 0.1-0.3 0.3-0.5 0.4-0.2 0.2-0.5 0.3-0.7 0.5-0.1 0.1-0.2 0.1-0.3 0.2-0.3 0.2-0.6 0.3-0.9 0.6-0.1 0.1-0.2 0.1-0.3 0.2 0 0.1 0 0.1 0 0.2 0 0.2-0.2 0.4-0.5 0.3-0.3-0.1-0.5 0-0.8 0-0.3 0.1-0.6 0.3-0.9 0.4-0.1 0-0.2 0.1-0.3 0.2-0.3 0.2-0.6 0.3-0.9 0.4-0.2 0-0.4 0.2-0.6 0.2-0.1 0-0.2 0.1-0.3 0.1h-0.1c-0.4 0.3-0.8 0.5-1.2 0.8-0.1 0-0.1 0.1-0.2 0.2-0.1 0.2-0.2 0.3-0.4 0.3-0.5 0-0.7 0.4-0.6 0.8 0 0.1 0.1 0.2 0.1 0.3 0.1 0.2 0 0.4-0.1 0.5-0.1 0.1-0.4 0.1-0.5-0.1-0.2-0.2-0.3-0.4-0.4-0.7-0.1-0.2-0.3-0.4-0.5-0.5-0.2-0.1-0.4-0.1-0.6 0-0.1 0-0.1 0.1-0.2 0.1-0.2 0.2-0.5 0.3-0.8 0.2-0.1 0-0.3 0-0.3 0.1-0.1 0.1-0.1 0.3 0 0.4 0.2 0.2 0.1 0.4 0.1 0.7 0 0.4-0.3 0.6-0.7 0.4-0.1-0.1-0.2-0.1-0.3-0.2-0.1 0-0.1-0.1-0.1-0.2-0.1-0.1-0.1-0.3-0.2-0.5-0.2 0.1-0.4 0.1-0.6 0.2-0.1 0-0.2 0.1-0.3 0.1-0.3 0-0.4 0-0.5-0.3-0.1-0.3-0.3-0.3-0.5-0.4-0.4-0.1-0.9-0.1-1.3-0.3h-0.1c-0.4-0.3-0.8-0.3-1.3-0.3-0.3 0-0.6 0.1-0.9 0.1-0.3 0-0.5 0.1-0.7 0.3-0.1 0.1-0.2 0.2-0.3 0.2-0.1-0.1-0.1-0.2-0.2-0.3v-0.1c0-0.1-0.1-0.2-0.2-0.1-0.2 0.1-0.4-0.1-0.6-0.2-0.1-0.1-0.3-0.3-0.3-0.5-0.1-0.1-0.2-0.2-0.3-0.2-0.2 0-0.5-0.1-0.7-0.1-0.1 0-0.2 0-0.2-0.1-0.1-0.1-0.2-0.1-0.4-0.1-0.1 0-0.1-0.1-0.2-0.1 0.2 0.2 0.3 0.4 0.4 0.6 0 0.1 0.1 0.1 0.1 0.2 0.1 0.2 0 0.3-0.3 0.3-0.2 0-0.2 0-0.3 0.1 0 0.2 0 0.3 0 0.5 0 0.1 0 0.2-0.2 0.3 0 0-0.1 0-0.1 0.1-0.1 0.1-0.1 0.2 0 0.3 0.3 0.2 0.5 0.3 0.8 0.4 0.3 0 0.3 0.2 0.4 0.4 0.1 0.2 0 0.3-0.1 0.5-0.2 0.2-0.4 0.4-0.6 0.6-0.3 0.1-0.5 0.4-0.8 0.4-0.2 0-0.4-0.1-0.5-0.3-0.1-0.5-0.1-0.9 0.1-1.4 0-0.1 0.1-0.2 0-0.3-0.9 0-0.9-0.2-0.9-0.3 0-0.2 0.1-0.3 0.1-0.5 0.1-0.2 0-0.3-0.3-0.4-0.1 0-0.2 0-0.3 0-0.1 0-0.1-0.1-0.3-0.1 0.2-0.1 0.3-0.1 0.5-0.2-0.1-0.4-0.2-0.7-0.5-0.9-0.1-0.1-0.2-0.2-0.2-0.4 0-0.3-0.2-0.5-0.3-0.7-0.2-0.3-0.6-0.4-0.9-0.4-0.3-0.1-0.5-0.1-0.8-0.2-0.3-0.1-0.6-0.4-0.9-0.5-0.1-0.1-0.2-0.2-0.4-0.3-0.4-0.2-0.7-0.5-1-0.8-0.2-0.1-0.3-0.3-0.5-0.4-0.2-0.2-0.3-0.4-0.5-0.5-0.2-0.2-0.4-0.4-0.7-0.6-0.3-0.2-0.5-0.5-0.8-0.8-0.2-0.3-0.5-0.5-0.8-0.7-0.1 0-0.2 0-0.3 0-0.1 0-0.2 0.1-0.3 0.1-0.3 0.1-0.5 0.3-0.8 0.4 0.1-0.1 0.1-0.1 0-0.3-0.1-0.1-0.2-0.2-0.3-0.2-0.2 0-0.4 0-0.6 0-0.4 0-0.8 0.1-1.2 0.1-0.3 0-0.7 0.1-1 0.2 0.1 0.2 0.1 0.3 0.2 0.5-0.2 0.1-0.4 0.1-0.6 0.1-0.1 0-0.3 0.1-0.4 0.2-0.1 0-0.1 0.1-0.2 0-0.2-0.1-0.4 0-0.6 0.1h-0.1c0 0 0-0.1 0.1-0.1 0.1-0.1 0.2-0.2 0.3-0.3 0.1-0.1 0.2-0.1 0.4-0.2-0.1-0.1-0.1-0.2-0.1-0.2-0.1-0.1-0.2-0.1-0.3 0-0.1 0.1-0.2 0.2-0.3 0.3-0.1 0.1-0.2 0.1-0.3 0-0.1-0.1-0.1-0.2 0-0.3 0-0.1 0.1-0.2 0.2-0.3 0.1-0.1 0.1-0.2 0.2-0.3-0.2-0.2-0.3-0.4-0.5-0.5-0.3-0.2-0.6-0.5-0.8-0.8-0.2-0.4-0.5-0.7-0.9-0.9-0.1-0.1-0.2-0.2-0.3-0.3-0.1-0.1-0.1-0.1-0.2-0.2-0.3 0.1-0.5 0.3-0.8 0.4-0.1 0-0.1 0.1-0.2 0.2-0.1 0.2-0.3 0.2-0.5 0.2-0.1 0-0.2-0.1-0.1-0.2 0.1-0.2 0.2-0.4 0.5-0.3 0 0 0.1 0 0.1-0.1 0.2-0.2 0.4-0.5 0.7-0.7-0.1-0.3-0.3-0.5-0.4-0.7-0.1-0.1-0.1-0.2-0.1-0.4 0-0.1 0-0.1-0.1-0.2 0 0-0.1 0-0.2 0.1-0.1 0.1-0.3 0.2-0.5 0 0-0.1 0-0.2 0.1-0.3l0.1-0.1c0.3-0.1 0.3-0.4 0.3-0.7v-0.1c-0.1-0.2-0.1-0.3 0.1-0.5 0.3-0.2 0.6-0.6 0.7-0.9 0.1-0.2 0.3-0.3 0.5-0.5 0.2-0.2 0.4-0.4 0.5-0.7h0.1c0.4 0.1 0.5-0.2 0.7-0.5 0-0.1 0-0.2 0.1-0.2 0.2-0.2 0.2-0.4 0.1-0.7 0-0.1-0.1-0.3-0.1-0.4 0-0.1 0-0.1-0.1-0.2-0.3-0.2-0.3-0.4 0-0.6 0.2-0.1 0.2-0.3 0.3-0.4 0.1-0.2 0.1-0.4 0.1-0.7-0.1-0.3-0.1-0.7-0.2-1-0.1-0.4-0.2-0.9-0.3-1.3 0-0.1 0-0.1 0-0.2 0-0.3 0-0.5-0.1-0.8-0.1-0.1-0.1-0.3-0.1-0.4-0.1-0.3-0.2-0.5-0.5-0.6-0.3-0.2-0.7-0.3-1-0.5-0.1-0.1-0.2 0-0.3 0.1-0.1 0.2-0.3 0.4-0.4 0.6-0.1 0.1-0.2 0.3-0.3 0.5-0.2 0.2-0.6 0.4-0.9 0.1-0.1-0.2-0.2-0.3 0-0.5 0.2-0.3 0.4-0.6 0.7-0.8 0.1-0.1 0.2-0.3 0.3-0.4 0.1-0.2 0.1-0.4 0.1-0.6-0.1-0.4-0.2-0.8-0.2-1.3 0-0.5 0-0.9 0.1-1.4 0.1-0.2 0.1-0.5 0.2-0.7 0-0.1 0.1-0.3 0.2-0.4 0.2-0.2 0.4-0.4 0.5-0.7 0.1-0.3 0.3-0.6 0.3-0.9 0-0.1 0.1-0.2 0.1-0.3 0-0.1 0.1-0.3 0.1-0.4-0.1-0.3 0-0.5 0.1-0.7 0.1-0.2 0.2-0.5 0.3-0.7 0.2-0.4 0.2-0.9 0.6-1.3 0.1-0.2 0.2-0.4 0.3-0.6 0.1-0.4 0.3-0.7 0.5-1 0.1-0.1 0.1-0.1 0.1-0.2 0.1-0.3 0.3-0.6 0.5-0.9 0.2-0.3 0.2-0.6 0.3-0.9 0-0.1 0-0.2 0.1-0.3 0.3-0.3 0.2-0.7 0.1-1.1-0.2-0.5-0.3-1-0.2-1.5 0-0.1 0-0.2 0.1-0.2 0.1-0.2 0.1-0.3 0.2-0.5v-0.1c0.2-0.2 0.4-0.5 0.7-0.6 0.4-0.2 0.8-0.3 1.3-0.4 0.4 0 0.8-0.2 1.1-0.6 0-0.1 0.1-0.1 0.2-0.2l0.1-0.1c0.1-0.2 0.2-0.3 0.3-0.4 0.2-0.2 0.4-0.5 0.6-0.7 0.2-0.2 0.4-0.5 0.7-0.8l0.1-0.1c0.2-0.2 0.4-0.4 0.6-0.5 0.2-0.2 0.4-0.4 0.6-0.6 0.2-0.2 0.3-0.4 0.5-0.6 0.2-0.1 0.4-0.3 0.6-0.5 0.2-0.2 0.4-0.4 0.5-0.5 0.2-0.2 0.5-0.4 0.7-0.5 0.2-0.1 0.4-0.2 0.5-0.5 0.1-0.3 0.2-0.5 0.3-0.8 0-0.2 0.1-0.4 0.2-0.6 0.1 0 0.2 0 0.4-0.1-0.1-0.1-0.2-0.1-0.2-0.2 0-0.1 0.1-0.2 0.1-0.2 0-0.1 0.1-0.2 0.1-0.3 0 0 0.1 0 0.1-0.1 0 0 0.1 0 0.1-0.1-0.2 0.1-0.3 0-0.4-0.1 0.1 0.1 0.2 0.1 0.4 0.2 0 0 0.1 0 0.1-0.1 0-0.1 0-0.2 0-0.2 0 0-0.1 0-0.2 0-0.1 0-0.2 0.1-0.3 0.1zM54 70.5c0-0.1-0.1-0.1-0.1-0.2-0.1-0.2 0-0.3 0.1-0.4 0.1-0.1 0.2-0.1 0.4-0.1 0.2 0.1 0.3 0.2 0.3 0.4 0 0.1 0 0.3 0 0.4 0.1 0.4 0.1 0.4 0.5 0.4 0.2 0 0.4 0 0.6 0 0.4-0.1 0.8-0.3 1.2-0.4 0.4-0.1 0.8-0.2 1.2-0.3 0.1 0 0.2 0 0.4 0 0.4 0.1 0.7 0 1-0.2 0.1-0.1 0.3-0.1 0.4-0.2 0.2-0.1 0.4-0.1 0.6-0.2 0.5-0.3 1-0.5 1.4-0.8 0.3-0.2 0.6-0.4 0.9-0.6 0.3-0.2 0.6-0.4 0.9-0.6 0.2-0.1 0.5-0.3 0.7-0.5 0.4-0.3 0.7-0.6 1.1-0.8 0.2-0.1 0.3-0.2 0.4-0.3 0.2-0.1 0.3-0.3 0.5-0.4 0.1-0.1 0.2-0.2 0.4-0.3 0.1-0.1 0.1-0.1 0.1-0.2 0.3-0.2 0.6-0.6 0.8-0.9 0.2-0.2 0.4-0.4 0.6-0.7 0.3-0.3 0.5-0.7 0.8-1.1 0.2-0.2 0.4-0.5 0.5-0.7 0.2-0.4 0.4-0.8 0.7-1.1v-0.1c0.2-0.4 0.4-0.8 0.6-1.2 0.3-0.5 0.5-1.1 0.8-1.6 0.1-0.2 0.2-0.4 0.2-0.6 0.2-0.4 0.3-0.8 0.4-1.2 0-0.1 0-0.1 0.1-0.2 0.3-0.6 0.5-1.2 0.6-1.9 0.1-0.4 0.2-0.8 0.3-1.2 0.2-0.6 0.2-1.1 0.3-1.7 0.1-0.4 0.1-0.9 0.1-1.3 0.1-0.6 0.1-1.3 0-1.9 0-0.5-0.1-1.1-0.1-1.6 0-0.5-0.1-0.9-0.2-1.4-0.1-0.5-0.2-0.9-0.3-1.4-0.2-0.4-0.3-0.8-0.4-1.3-0.1-0.4-0.3-0.7-0.3-1.1 0-0.3-0.1-0.6-0.4-0.7-0.3-0.1-0.5-0.2-0.8-0.4-0.6-0.4-0.9-0.9-0.8-1.5 0-0.3 0.1-0.7 0.2-1 0.1-0.3 0.2-0.6 0-0.8-0.1-0.3-0.3-0.5-0.4-0.7-0.2-0.3-0.3-0.5-0.5-0.7-0.2-0.4-0.4-0.8-0.7-1.1-0.4-0.5-0.7-1-1.2-1.4l-0.1-0.1c-0.3-0.4-0.6-0.8-1-1.1-0.2-0.2-0.4-0.4-0.6-0.5-0.1-0.1-0.2-0.2-0.4-0.3-0.3-0.2-0.6-0.3-0.8-0.5-0.3-0.3-0.7-0.5-1-0.7 0 0-0.1 0-0.1-0.1-0.4-0.2-0.7-0.3-1.1-0.5-0.4-0.2-0.8-0.3-1.2-0.3-0.1 0-0.1 0-0.2 0-0.1-0.1-0.3-0.1-0.4-0.1-0.1 0-0.1 0-0.2 0-0.2-0.1-0.5 0-0.7 0-0.4 0.1-0.8 0.1-1.2-0.1-0.5-0.2-0.9-0.4-1.3-0.6-0.3-0.2-0.5-0.4-0.8-0.6-0.6-0.5-1.2-1.1-1.9-1.6 0.1-0.5-0.1-0.6-0.5-0.6-0.2 0-0.4 0.1-0.6 0.2-0.1 0.1-0.1 0.1-0.2 0.2-0.3 0.2-0.5 0.5-0.8 0.7-0.5 0.3-0.7 0.2-1.1 0-0.1-0.1-0.2-0.2-0.3-0.3-0.2-0.2-0.4-0.5-0.5-0.7-0.2-0.4-0.6-0.4-1-0.4-0.2 0-0.5 0.1-0.7 0.1-0.4 0-0.8 0.2-1 0.5-0.2 0.3-0.4 0.6-0.7 0.9-0.1 0.1-0.3 0.2-0.4 0.4-0.2 0.2-0.4 0.2-0.6 0-0.1-0.1-0.2-0.1-0.3-0.2-0.1 0.1-0.2 0.2-0.2 0.3-0.1 0.2-0.2 0.4-0.3 0.7-0.1 0.3-0.3 0.6-0.5 0.8-0.1 0.1-0.1 0.1-0.2 0.2-0.1 0.2-0.4 0.3-0.6 0.3-0.2 0.2-0.4 0.5-0.5 0.7-0.1 0.2-0.2 0.4-0.3 0.7-0.1 0.1-0.1 0.3-0.2 0.4-0.1 0.2-0.1 0.3-0.1 0.5 0.1 0.3-0.1 0.4-0.4 0.5-0.2 0-0.2 0-0.3 0.2 0 0.3 0.1 0.5 0.2 0.8 0.1 0.1 0.2 0.3 0.2 0.4 0 0.2 0.1 0.3 0.3 0.4 0.1 0.1 0.2 0.2 0.3 0.2 0.1 0 0.1 0.1 0.2 0.1 0.1 0.1 0.2 0 0.2-0.1 0.1-0.3 0.2-0.6 0.2-0.9 0.1-0.4 0.1-0.7 0.2-1.1 0.1-0.2 0.2-0.3 0.3-0.4 0 0 0.1 0 0.2 0v0.1c-0.1 0.5-0.3 1.1-0.4 1.6-0.1 0.2-0.1 0.4-0.2 0.6 0 0.1-0.1 0.2-0.2 0.2-0.2 0.1-0.4 0.2-0.6 0.2-0.1 0-0.2 0-0.3 0-0.2-0.1-0.4-0.3-0.6-0.4-0.1-0.1-0.2-0.2-0.3-0.3-0.1-0.2-0.2-0.4-0.3-0.6-0.1-0.2-0.2-0.3-0.4-0.4-0.1-0.1-0.2-0.1-0.3-0.2-0.2-0.2-0.4-0.3-0.7-0.3-0.1 0-0.3 0-0.4 0-0.1 0-0.3 0.1-0.4 0.2-0.2 0.1-0.3 0.1-0.5 0-0.5-0.2-1-0.1-1.5 0.1-0.2 0.1-0.4 0.2-0.6 0.2-0.5 0-0.9 0-1.4 0-0.5 0-0.9-0.1-1.4-0.2-0.2 0-0.4 0-0.6 0-0.4 0.1-0.5 0.4-0.4 0.8 0.1 0.4 0.2 0.9 0.2 1.3 0 0.3 0 0.6 0 0.9 0 0.2 0 0.3 0 0.5 0 0.3-0.1 0.6-0.1 0.9-0.1 0.6-0.4 1.1-0.8 1.5-0.3 0.3-0.7 0.6-1.1 0.7-0.2 0.1-0.4 0.2-0.7 0.3-0.5 0.2-0.9 0.6-1.2 1.1-0.1 0.2-0.2 0.4-0.3 0.6-0.2 0.3-0.3 0.5-0.5 0.8-0.1 0.2-0.3 0.4-0.4 0.6-0.1 0.2-0.3 0.3-0.3 0.5-0.2 0.4-0.3 0.8-0.5 1.2-0.1 0.2-0.1 0.5-0.2 0.7-0.2 0.4-0.2 0.8-0.2 1.3 0 0.1 0 0.2 0 0.4 0 0.5-0.1 1.1-0.1 1.6 0 0.5 0 1 0.1 1.5 0 0.2 0 0.5 0 0.7 0 0.4 0.1 0.9 0.1 1.3 0 0.4 0 0.9 0.2 1.3v0.1c0.1 0.4 0.1 0.8 0.2 1.2 0 0.1 0 0.2 0.1 0.3 0.2 0.6 0.3 1.1 0.5 1.7 0.1 0.4 0.3 0.8 0.4 1.2 0.1 0.4 0.5 0.8 0.6 1.3v0c0.3 0.6 0.6 1.2 1 1.8 0.1 0.2 0.3 0.4 0.4 0.6 0.2 0.3 0.3 0.6 0.5 0.8 0.1 0.2 0.3 0.4 0.4 0.5 0.1 0.2 0.2 0.4 0.4 0.6 0.2 0.2 0.4 0.5 0.6 0.7 0.3 0.5 0.7 0.9 1.1 1.2 0.2 0.2 0.4 0.3 0.6 0.5 0.1 0.1 0.2 0.1 0.2 0.2 0.1 0.1 0.2 0.2 0.4 0.3 0.8 0.4 1.4 1 2.1 1.6 0.3 0.3 0.6 0.6 1 0.8 0.4 0.3 0.7 0.6 1.2 0.7 0 0 0.1 0 0.1 0.1 0.2 0.2 0.5 0.3 0.7 0.4 0.4 0.2 0.9 0.4 1.3 0.6 0.1 0.1 0.3 0.1 0.4 0.2 0.3 0.1 0.6 0.2 0.9 0.3 0.3 0.1 0.5 0.2 0.8 0.2h0.1c0.2 0.1 0.3 0.1 0.5 0 0.1 0 0.2 0 0.2 0.1 0 0.1 0.1 0.1 0.2 0.1 0.1 0 0.2 0 0.4 0 0.1-0.1 0.1-0.2 0.2-0.4 0.1 0.1 0.2 0.1 0.2 0.1 0.1 0.2 0.3 0.2 0.5 0.2h0.1c0.2 0 0.3 0 0.4-0.1 0-0.1 0.2-0.1 0.3-0.1 0.3 0.1 0.6 0.1 0.9 0.2 0.2 0.1 0.5 0.1 0.6-0.1 0.1-0.1 0.2-0.2 0.4-0.1 0.2 0.1 0.3 0.1 0.5 0 0.1 0 0.2 0 0.2 0 0.3 0.1 0.5 0.1 0.8 0.2 0.4 0.1 0.4 0.1 0.7-0.2 0.1-0.1 0.3-0.1 0.4 0 0.1 0.2 0.1 0.3 0.1 0.5 0.1 0 0.1 0 0.2-0.1 0-0.2 0.1-0.2 0.3-0.3 0.1 0.1 0.1 0.1 0.2 0.1 0.2 0.2 0.3 0.2 0.4-0.1 0-0.1 0-0.2 0.1-0.2 0.1 0 0.2 0.1 0.2 0.1 0.1 0.2 0.3 0.3 0.4 0.5 0.2 0.2 0.5 0.2 0.6 0 0.1-0.1 0.2-0.1 0.3-0.1 0-0.1 0-0.2 0-0.3 0.3 0.2 0.2 0.2 0.1 0.2zM37.4 23.8c0.3 0.1 0.5 0.1 0.6-0.1-0.2 0.1-0.4-0.1-0.6 0.1z" fill="#ffffff" fill-rule="nonzero" stroke="none" stroke-width="1" stroke-linecap="butt" stroke-linejoin="miter" stroke-miterlimit="10" stroke-dasharray="" stroke-dashoffset="0" font-family="none" font-weight="none" font-size="none" text-anchor="none" style="mix-blend-mode: normal" data-fill-palette-color="tertiary"></path></g><g transform="matrix(1,0,0,1,64,121.01535762553927)"><svg viewBox="0 0 192 117.96928474892147" height="117.96928474892147" width="192"><g><svg viewBox="0 0 192 117.96928474892147" height="117.96928474892147" width="192"><g><svg viewBox="0 0 192 117.96928474892147" height="117.96928474892147" width="192"><g transform="matrix(1,0,0,1,0,72.90975066781708)"><svg viewBox="0 0 192 45.05953408110439" height="45.05953408110439" width="192"><g id="textblocktransform"><svg viewBox="0 0 192 45.05953408110439" height="45.05953408110439" width="192" id="textblock"><g><svg viewBox="0 0 192 45.05953408110439" height="45.05953408110439" width="192"><g transform="matrix(1,0,0,1,0,0)"><svg width="192" viewBox="-0.1 -30.05 173.82 40.8" height="45.05953408110439" data-palette-color="#000000"><path d="M0.2 3.8L0.2 3.8Q-0.1 3.8-0.1 3.4L-0.1 3.4Q-0.1 2.9 0.45 2.2L0.45 2.2Q3.3-1.05 6.98-4.25 10.65-7.45 15.25-11.1L15.25-11.1Q15.1-11.05 16.95-12.5L16.95-12.5 17.8-13.2Q15.75-13 14.23-12.85 12.7-12.7 11.7-12.55L11.7-12.55 11.6-12.55Q11.25-12.55 11-12.8 10.75-13.05 10.75-13.35L10.75-13.35Q10.75-14.05 11.5-14.15L11.5-14.15Q11.85-14.2 13.38-14.4 14.9-14.6 17.55-14.9L17.55-14.9 20.3-15.2 22.6-17.2Q24.8-19.1 26.6-20.58 28.4-22.05 30.23-23.35 32.05-24.65 34.35-26L34.35-26Q31.3-26.2 29.15-26.25 27-26.3 25.7-26.35L25.7-26.35 23-26.4Q19.45-26.5 16.88-25.43 14.3-24.35 12.9-21.3L12.9-21.3Q12.75-20.9 12.45-20.9L12.45-20.9Q11.9-20.9 11.9-21.9L11.9-21.9Q11.9-23.25 13.1-25.1L13.1-25.1Q14.95-28 24.3-28L24.3-28 26.2-28Q30-28 32.9-27.85 35.8-27.7 37.8-27.45L37.8-27.45Q38.85-27.35 38.85-26.45L38.85-26.45Q38.85-25.85 38.2-25.5L38.2-25.5Q36.4-24.6 33.8-23.03 31.2-21.45 28.4-19.55 25.6-17.65 23.1-15.6L23.1-15.6Q25.75-15.85 27.85-15.98 29.95-16.1 31.4-16.1L31.4-16.1Q31.95-16.1 31.95-15.85L31.95-15.85Q31.95-15.55 30.7-15.1L30.7-15.1Q29.3-14.6 26.7-14.25L26.7-14.25Q25.25-14.05 23.8-13.88 22.35-13.7 20.9-13.6L20.9-13.6Q20.1-12.95 19.53-12.53 18.95-12.1 18.6-11.85L18.6-11.85 17.05-10.65Q15.6-9.55 13.45-7.75 11.3-5.95 8.45-3.5L8.45-3.5 5.7-1.15Q5.9-1.2 6.23-1.25 6.55-1.3 7-1.4L7-1.4Q8.1-1.65 8.93-1.78 9.75-1.9 10.25-1.9L10.25-1.9Q11.8-1.9 13.13-1.73 14.45-1.55 15.95-1.2 17.45-0.85 19.4-0.25L19.4-0.25Q21.95 0.5 23.8 0.93 25.65 1.35 27.65 1.35L27.65 1.35Q29.3 1.35 30.58 0.13 31.85-1.1 31.85-2.75L31.85-2.75Q31.85-3.65 31.5-4.35L31.5-4.35 31.4-4.75Q31.4-5.1 31.65-5.38 31.9-5.65 32.15-5.65L32.15-5.65Q32.45-5.65 32.65-5.35L32.65-5.35Q33.4-4.1 33.4-2.75L33.4-2.75Q33.4-1.2 32.55 0.1 31.7 1.4 30.33 2.2 28.95 3 27.25 3L27.25 3Q25.1 3 23 2.63 20.9 2.25 17.9 1.5L17.9 1.5Q14.8 0.75 12.8 0.38 10.8 0 8.7 0L8.7 0Q6.9 0 4.98 0.93 3.05 1.85 0.8 3.5L0.8 3.5Q0.45 3.8 0.2 3.8ZM38.25 0.55L38.25 0.55Q37.2 0.55 36.4 0L36.4 0Q35.1-1 35.1-3L35.1-3Q35.1-5 36.5-7.25 37.9-9.5 40.75-11.4L40.75-11.4Q41.25-11.75 42.1-11.75L42.1-11.75Q43.2-11.75 44.07-11.15 44.95-10.55 44.75-9.6L44.75-9.6Q44.4-8.05 43.22-6.85 42.05-5.65 40.47-4.73 38.9-3.8 37.25-2.95L37.25-2.95Q37.2-2.8 37.17-2.65 37.15-2.5 37.15-2.35L37.15-2.35Q37.15-1.65 37.62-1.13 38.1-0.6 38.95-0.6L38.95-0.6Q39.6-0.6 40.05-0.8L40.05-0.8Q40.85-1.1 41.37-1.35 41.9-1.6 42.6-2.1 43.3-2.6 44.5-3.6L44.5-3.6Q45.05-4 45.15-4L45.15-4Q45.45-4 45.35-3.55L45.35-3.55Q44.85-2.75 43.62-1.8 42.4-0.85 40.92-0.15 39.45 0.55 38.25 0.55ZM37.55-4.3L37.55-4.3Q37.95-4.3 39.2-5.1 40.45-5.9 41.55-6.85L41.55-6.85Q43.45-8.6 43.45-9.55L43.45-9.55Q43.45-9.8 43.3-10L43.3-10Q43.15-10.25 42.85-10.25L42.85-10.25Q41.9-10.25 39.65-8L39.65-8Q38.1-6.5 37.55-4.3ZM46.95 0.85L46.95 0.85Q45 0.85 45-0.9L45-0.9Q45-1 45.02-1.25 45.05-1.5 45.1-1.85L45.1-1.85Q45.6-3.9 47.12-5.83 48.65-7.75 50.65-9.2L50.65-9.2Q51.4-9.8 53.05-9.8L53.05-9.8Q54-9.8 54.72-9.53 55.45-9.25 55.75-8.7L55.75-8.7Q56.05-8.2 56.05-7.55L56.05-7.55Q56.05-7.45 56.02-7.25 56-7.05 55.95-6.8L55.95-6.8Q56.05-6.85 56.27-6.85 56.5-6.85 56.85-6.9L56.85-6.9Q57.2-6.95 57.52-7 57.85-7.05 58.2-7.05L58.2-7.05 58.4-7.05Q58.95-7.05 58.52-6.63 58.1-6.2 57.4-6.1L57.4-6.1 55.7-5.9Q55.2-4.5 53.97-3.1 52.75-1.7 51.27-0.68 49.8 0.35 48.5 0.65L48.5 0.65Q47.75 0.85 46.95 0.85ZM53.35-6.6L53.35-6.6Q53.65-6.6 54.07-6.63 54.5-6.65 55.05-6.7L55.05-6.7Q55.1-6.8 55.1-7.15L55.1-7.15Q55.1-8.05 54.35-8.4L54.35-8.4Q53.95-8.65 53.35-8.65L53.35-8.65Q52.6-8.65 51.82-8.18 51.05-7.7 50.2-6.95L50.2-6.95Q51.25-6.6 53.35-6.6ZM48.45-0.9L48.45-0.9Q48.95-0.9 49.87-1.38 50.8-1.85 51.8-2.65 52.8-3.45 53.6-4.35L53.6-4.35Q53.85-4.6 54.1-4.98 54.35-5.35 54.65-5.75L54.65-5.75 53.45-5.6Q50.65-5.2 48.45-5.15L48.45-5.15Q47.35-3.35 47.1-2.15L47.1-2.15Q47.05-1.5 47.45-1.2 47.85-0.9 48.45-0.9ZM51.24 7.1L51.24 7.1Q51.04 7.1 50.99 6.83 50.94 6.55 51.04 6.35L51.04 6.35Q51.89 4.6 53.54 2.45 55.19 0.3 57.32-1.95 59.44-4.2 61.64-6.2L61.64-6.2 61.69-7.75Q61.69-8.85 61.39-9.65L61.39-9.65Q60.99-9.45 60.59-9.45L60.59-9.45Q60.19-9.45 60.19-9.8L60.19-9.8Q60.19-10.45 60.99-10.9L60.99-10.9Q61.39-11.15 61.79-11.15L61.79-11.15Q62.74-11.15 63.02-9.9 63.29-8.65 63.24-7.35L63.24-7.35 65.29-9.05Q66.39-9.85 67.29-11.05L67.29-11.05Q68.44-12.55 69.69-12.55L69.69-12.55Q70.39-12.55 70.39-12.05L70.39-12.05Q70.39-11.7 69.94-11.4L69.94-11.4Q65.64-8.3 63.14-6.25L63.14-6.25Q62.99-4.9 62.99-3.5L62.99-3.5Q62.99-1.95 63.89-1.95L63.89-1.95Q64.44-1.95 65.09-2.4L65.09-2.4Q65.89-2.95 66.49-3.45 67.09-3.95 67.44-4.4L67.44-4.4Q67.99-4.95 68.19-4.95L68.19-4.95Q68.39-4.95 68.39-4.7L68.39-4.7Q68.39-4.3 67.84-3.75L67.84-3.75Q67.69-3.6 67.54-3.5L67.54-3.5Q67.44-3.4 67.29-3.28 67.14-3.15 67.04-3.05L67.04-3.05Q66.59-2.7 66.22-2.4 65.84-2.1 65.59-1.85L65.59-1.85Q63.09 0.5 61.94 0.5L61.94 0.5Q61.54 0.5 61.34 0.3L61.34 0.3Q61.04 0 61.04-0.9L61.04-0.9Q61.04-1.65 61.19-2.53 61.34-3.4 61.49-4.08 61.64-4.75 61.64-4.85L61.64-4.85Q57.94-1.65 55.44 1.2 52.94 4.05 51.64 6.65L51.64 6.65Q51.44 7.1 51.24 7.1ZM71.89 0.55L71.89 0.55Q70.84 0.55 70.04 0L70.04 0Q68.74-1 68.74-3L68.74-3Q68.74-5 70.14-7.25 71.54-9.5 74.39-11.4L74.39-11.4Q74.89-11.75 75.74-11.75L75.74-11.75Q76.84-11.75 77.72-11.15 78.59-10.55 78.39-9.6L78.39-9.6Q78.04-8.05 76.87-6.85 75.69-5.65 74.12-4.73 72.54-3.8 70.89-2.95L70.89-2.95Q70.84-2.8 70.82-2.65 70.79-2.5 70.79-2.35L70.79-2.35Q70.79-1.65 71.27-1.13 71.74-0.6 72.59-0.6L72.59-0.6Q73.24-0.6 73.69-0.8L73.69-0.8Q74.49-1.1 75.02-1.35 75.54-1.6 76.24-2.1 76.94-2.6 78.14-3.6L78.14-3.6Q78.69-4 78.79-4L78.79-4Q79.09-4 78.99-3.55L78.99-3.55Q78.49-2.75 77.27-1.8 76.04-0.85 74.57-0.15 73.09 0.55 71.89 0.55ZM71.19-4.3L71.19-4.3Q71.59-4.3 72.84-5.1 74.09-5.9 75.19-6.85L75.19-6.85Q77.09-8.6 77.09-9.55L77.09-9.55Q77.09-9.8 76.94-10L76.94-10Q76.79-10.25 76.49-10.25L76.49-10.25Q75.54-10.25 73.29-8L73.29-8Q71.74-6.5 71.19-4.3ZM78.94 1.05L78.94 1.05Q78.29 1.05 78.29-0.1L78.29-0.1Q78.29-1.05 78.74-1.95L78.74-1.95Q79.89-4.15 80.84-6.3L80.84-6.3Q81.49-7.6 82.06-8.8 82.64-10 83.14-11L83.14-11Q83.44-11.3 83.74-11.3L83.74-11.3Q84.39-11.3 84.14-10.7L84.14-10.7Q84.04-10.35 83.86-9.88 83.69-9.4 83.44-8.75L83.44-8.75Q82.64-6.65 82.49-5.8L82.49-5.8Q83.89-7.05 85.36-8.13 86.84-9.2 88.14-9.9 89.44-10.6 90.34-10.6L90.34-10.6Q91.14-10.6 91.14-9.95L91.14-9.95Q91.14-9.4 90.64-8.78 90.14-8.15 89.64-8.15L89.64-8.15Q89.39-8.15 89.24-8.3L89.24-8.3Q89.09-8.35 88.64-8.35L88.64-8.35Q87.04-8.35 85.29-6.8L85.29-6.8Q83.44-5.25 81.94-3.08 80.44-0.9 79.74 0.7L79.74 0.7Q79.39 1.05 78.94 1.05ZM91.79-10.35L91.74-10.3Q91.59-10.25 91.59-10.35L91.59-10.35 91.59-10.55Q91.59-10.65 91.94-11.15L91.94-11.15Q92.19-11.55 92.31-11.83 92.44-12.1 92.49-12.2L92.49-12.2Q92.94-13.05 93.24-13.75 93.54-14.45 93.64-15L93.64-15 93.64-15.55Q93.64-15.65 93.64-15.83 93.64-16 93.69-16.2L93.69-16.2Q93.94-16.5 94.59-16.5L94.59-16.5Q94.94-16.5 95.11-16.25 95.29-16 95.29-15.65L95.29-15.65Q95.29-15.3 94.86-14.53 94.44-13.75 93.84-12.88 93.24-12 92.66-11.3 92.09-10.6 91.79-10.35L91.79-10.35ZM92.73 2.1L92.73 2.1Q91.93 2.1 91.33 1.95L91.33 1.95Q90.78 1.8 90.78 1.55L90.78 1.55Q90.78 1.15 91.58 1.1L91.58 1.1Q92.33 1.05 92.58 0.95L92.58 0.95Q93.03 0.85 93.63 0.8L93.63 0.8Q94.18 0.7 94.53 0.65L94.53 0.65Q96.93-0.05 96.93-1.5L96.93-1.5Q96.93-2.5 95.88-4.05L95.88-4.05Q95.23-5 95.23-6.15L95.23-6.15Q95.23-7.55 96.11-8.9 96.98-10.25 98.31-11.28 99.63-12.3 100.98-12.65L100.98-12.65Q101.58-12.8 102.23-12.8L102.23-12.8Q103.28-12.8 103.73-12.3L103.73-12.3Q104.03-12 104.03-11L104.03-11Q104.03-10.25 103.78-9.47 103.53-8.7 103.08-8.2L103.08-8.2Q102.83-7.95 102.68-7.95L102.68-7.95Q102.43-7.95 102.43-8.65L102.43-8.65 102.48-9.65Q102.53-10.05 102.56-10.35 102.58-10.65 102.58-10.85L102.58-10.85Q102.58-11.7 102.23-11.85L102.23-11.85Q101.83-11.95 101.68-11.95L101.68-11.95Q100.63-11.95 99.43-11 98.23-10.05 97.48-8.8L97.48-8.8Q97.18-8.35 97.18-7.7L97.18-7.7Q97.18-6.9 97.61-5.83 98.03-4.75 98.23-4.25L98.23-4.25Q98.73-3.15 99.01-2.35 99.28-1.55 99.28-0.95L99.28-0.95Q99.28-0.65 99.23-0.5L99.23-0.5Q99.48-0.6 100.43-0.8L100.43-0.8Q101.28-1 101.88-1L101.88-1Q102.23-1 102.23-0.85L102.23-0.85Q102.23-0.8 101.93-0.5L101.93-0.5Q101.78-0.35 101.01-0.03 100.23 0.3 99.21 0.65 98.18 1 97.18 1.3 96.18 1.6 95.48 1.75L95.48 1.75Q94.28 2.1 92.73 2.1ZM122.08 3.45L122.08 3.45Q120.88 3.45 120.88 2.5L120.88 2.5Q120.88 1.55 122.13 0.15L122.13 0.15Q123.28-1.1 125.88-2.53 128.48-3.95 131.83-5.05L131.83-5.05Q132.58-5.3 133.03-5.3L133.03-5.3Q133.63-5.3 133.63-5.05L133.63-5.05Q133.63-4.8 133.03-4.65L133.03-4.65Q130.93-4.1 128.88-3.08 126.83-2.05 125.23-0.9L125.23-0.9Q122.68 0.95 122.68 1.65L122.68 1.65Q122.68 2.05 123.48 2.05L123.48 2.05Q125.23 2.05 128.88-0.1L128.88-0.1Q131.28-1.5 133.43-3.28 135.58-5.05 136.9-6.8 138.23-8.55 138.23-9.95L138.23-9.95Q138.23-11.55 136.33-12.45L136.33-12.45Q134.53-11.5 132.58-10.63 130.63-9.75 128.88-9.05 127.13-8.35 125.85-8 124.58-7.65 124.13-7.75L124.13-7.75Q122.63-8.05 122.63-8.85L122.63-8.85Q122.63-9.55 123.6-10.45 124.58-11.35 125.8-12.1 127.03-12.85 127.78-13.1L127.78-13.1Q130.63-14.1 133.23-14.1L133.23-14.1Q135.03-14.1 136.58-13.55L136.58-13.55Q138.38-14.45 140.3-16.1 142.23-17.75 143.73-19.65 145.23-21.55 145.68-23.2L145.68-23.2Q145.93-24.3 145.93-24.8L145.93-24.8Q145.93-26.75 144.3-27.68 142.68-28.6 139.93-28.6L139.93-28.6Q135.78-28.6 130.23-26.85L130.23-26.85Q126.53-25.7 123.4-24.13 120.28-22.55 118.38-20.93 116.48-19.3 116.33-17.85L116.33-17.85Q116.28-17.4 115.98-17.15 115.68-16.9 115.33-16.9L115.33-16.9Q114.73-16.9 114.73-17.65L114.73-17.65Q114.73-20.2 119.18-23.05L119.18-23.05Q121.43-24.55 124.2-25.83 126.98-27.1 129.98-28.05 132.98-29 135.85-29.53 138.73-30.05 141.13-30.05L141.13-30.05Q144.38-30.05 146.25-29 148.13-27.95 148.13-25.7L148.13-25.7Q148.13-24.85 147.83-23.8L147.83-23.8Q147.28-21.75 145.68-19.75 144.08-17.75 141.93-16.07 139.78-14.4 137.48-13.2L137.48-13.2Q140.28-11.4 140.28-9.15L140.28-9.15Q140.28-6.4 136.78-3.5L136.78-3.5Q135.03-2.05 132.93-0.8 130.83 0.45 128.73 1.4 126.63 2.35 124.88 2.9 123.13 3.45 122.08 3.45ZM119.18 1.85L119.18 1.85Q117.88 1.6 117.35 0.95 116.83 0.3 116.83-0.95L116.83-0.95Q116.83-1.2 116.88-1.7 116.93-2.2 117.03-3L117.03-3Q117.28-4.75 118.35-7.1 119.43-9.45 121-12.05 122.58-14.65 124.4-17.15 126.23-19.65 128.03-21.7L128.03-21.7 127.73-21.65Q127.48-21.65 127.48-21.9L127.48-21.9Q127.48-22.1 127.83-22.75L127.83-22.75Q128.43-23.85 129.23-24.4L129.23-24.4Q129.63-24.7 129.83-24.85 130.03-25 130.08-25.05L130.08-25.05Q130.33-25.3 130.88-25.3L130.88-25.3Q131.53-25.3 132.1-24.95 132.68-24.6 132.68-24.25L132.68-24.25Q132.68-24.1 132.43-23.85L132.43-23.85Q130.23-21.9 127.23-18L127.23-18Q125.18-15.35 123.38-12.65 121.58-9.95 120.4-7.7 119.23-5.45 119.03-4.05L119.03-4.05 118.78-3.05Q118.73-2.95 118.7-2.7 118.68-2.45 118.58-2.05L118.58-2.05Q118.38-1.4 118.38-0.75L118.38-0.75Q118.38 0.35 119.23 0.6L119.23 0.6Q119.88 0.7 119.88 1.35L119.88 1.35Q119.88 1.95 119.18 1.85ZM125.68-9.15L125.68-9.15Q125.88-9.05 126.08-9.05L126.08-9.05Q126.88-9.05 129.03-9.9L129.03-9.9Q130.43-10.45 132-11.18 133.58-11.9 135.28-12.8L135.28-12.8Q134.88-12.9 134.35-12.95 133.83-13 133.28-13L133.28-13Q131.23-13 129.18-12.1L129.18-12.1 129.13-12.1Q128.33-11.75 127.65-11.4 126.98-11.05 126.43-10.8L126.43-10.8Q125.38-10.3 125.38-9.65L125.38-9.65Q125.38-9.4 125.68-9.15ZM141.13 3.3L141.13 3.3Q140.58 3.3 140.2 2.95 139.83 2.6 139.88 2.1L139.88 2.1Q139.98 0.05 140.65-1.85 141.33-3.75 142.63-6.4L142.63-6.4Q142.78-6.75 142.9-7.03 143.03-7.3 143.13-7.5L143.13-7.5Q144.23-9.85 145.38-12 146.53-14.15 147.68-16.2L147.68-16.2 148.38-17.45Q149.58-19.6 150.48-20.93 151.38-22.25 152.28-22.85L152.28-22.85Q153.43-23.55 153.68-23.55L153.68-23.55Q154.08-23.55 154.48-22.85L154.48-22.85Q154.73-22.35 153.48-20.4L153.48-20.4Q152.83-19.4 151.85-17.9 150.88-16.4 149.53-14.5L149.53-14.5Q149.28-14.15 148.7-13.28 148.13-12.4 147.18-11L147.18-11Q146.23-9.6 145.53-8.47 144.83-7.35 144.38-6.5L144.38-6.5Q143.48-4.85 142.68-2.98 141.88-1.1 141.88-0.05L141.88-0.05Q141.88 0.9 142.63 0.9L142.63 0.9Q143.83 0.9 146.48-1.15L146.48-1.15Q146.78-1.1 146.78-0.85L146.78-0.85Q146.78-0.65 146.28-0.15L146.28-0.15Q145.83 0.3 145.15 0.83 144.48 1.35 143.58 2.05L143.58 2.05 142.78 2.65Q141.98 3.3 141.13 3.3ZM150.32 0.85L150.32 0.85Q148.37 0.85 148.37-0.9L148.37-0.9Q148.37-1 148.4-1.25 148.42-1.5 148.47-1.85L148.47-1.85Q148.97-3.9 150.5-5.83 152.02-7.75 154.02-9.2L154.02-9.2Q154.77-9.8 156.42-9.8L156.42-9.8Q157.37-9.8 158.1-9.53 158.82-9.25 159.12-8.7L159.12-8.7Q159.42-8.2 159.42-7.55L159.42-7.55Q159.42-7.45 159.4-7.25 159.37-7.05 159.32-6.8L159.32-6.8Q159.42-6.85 159.65-6.85 159.87-6.85 160.22-6.9L160.22-6.9Q160.57-6.95 160.9-7 161.22-7.05 161.57-7.05L161.57-7.05 161.77-7.05Q162.32-7.05 161.9-6.63 161.47-6.2 160.77-6.1L160.77-6.1 159.07-5.9Q158.57-4.5 157.35-3.1 156.12-1.7 154.65-0.68 153.17 0.35 151.87 0.65L151.87 0.65Q151.12 0.85 150.32 0.85ZM156.72-6.6L156.72-6.6Q157.02-6.6 157.45-6.63 157.87-6.65 158.42-6.7L158.42-6.7Q158.47-6.8 158.47-7.15L158.47-7.15Q158.47-8.05 157.72-8.4L157.72-8.4Q157.32-8.65 156.72-8.65L156.72-8.65Q155.97-8.65 155.2-8.18 154.42-7.7 153.57-6.95L153.57-6.95Q154.62-6.6 156.72-6.6ZM151.82-0.9L151.82-0.9Q152.32-0.9 153.25-1.38 154.17-1.85 155.17-2.65 156.17-3.45 156.97-4.35L156.97-4.35Q157.22-4.6 157.47-4.98 157.72-5.35 158.02-5.75L158.02-5.75 156.82-5.6Q154.02-5.2 151.82-5.15L151.82-5.15Q150.72-3.35 150.47-2.15L150.47-2.15Q150.42-1.5 150.82-1.2 151.22-0.9 151.82-0.9ZM160.37 10.75L160.37 10.75Q159.27 10.75 158.55 9.73 157.82 8.7 157.82 7.4L157.82 7.4Q157.82 6.35 158.12 5.85L158.12 5.85Q158.52 5.3 158.87 5.3L158.87 5.3Q159.27 5.3 159.27 5.75L159.27 5.75Q159.27 6.15 158.97 6.55L158.97 6.55Q158.77 6.8 158.77 7.2L158.77 7.2Q158.77 7.95 159.27 8.7 159.77 9.45 160.47 9.45L160.47 9.45Q160.57 9.45 160.67 9.43 160.77 9.4 160.92 9.35L160.92 9.35Q163.27 8.45 165.22 5.6L165.22 5.6Q167.17 2.7 168.42-0.78 169.67-4.25 170.27-7.2L170.27-7.2 170.07-7.25Q169.92-7.35 169.62-7.03 169.32-6.7 169.02-6.33 168.72-5.95 168.62-5.8L168.62-5.8Q168.47-5.6 167.85-4.93 167.22-4.25 166.37-3.43 165.52-2.6 164.67-1.8 163.82-1 163.22-0.5L163.22-0.5Q162.47 0.15 161.37 0.15L161.37 0.15Q161.07 0.15 160.77 0.05L160.77 0.05Q160.22-0.25 160.22-0.9L160.22-0.9Q160.22-1.75 161.22-3.5L161.22-3.5Q161.97-4.8 163.47-6.78 164.97-8.75 166.77-10.15L166.77-10.15Q168.07-11.2 169.47-11.5L169.47-11.5Q169.72-11.55 169.97-11.58 170.22-11.6 170.47-11.65L170.47-11.65Q170.72-11.65 170.92-11.65 171.12-11.65 171.32-11.7L171.32-11.7Q171.37-11.7 172.1-11.78 172.82-11.85 173.02-12.25L173.02-12.25 173.17-12.3Q173.37-12.3 173.57-12.1L173.57-12.1Q173.72-11.95 173.72-11.5L173.72-11.5Q173.72-11.35 173.67-11.13 173.62-10.9 173.62-10.6L173.62-10.6 173.62-10.55Q173.62-8.7 172.92-6.73 172.22-4.75 171.42-2.7L171.42-2.7Q169.77 1.45 167.25 5 164.72 8.55 161.67 10.35L161.67 10.35Q161.02 10.75 160.37 10.75ZM161.87-1.65L161.87-1.65Q162.07-1.55 162.17-1.55L162.17-1.55Q162.42-1.55 162.92-1.8L162.92-1.8Q163.27-2 163.65-2.3 164.02-2.6 164.52-3L164.52-3Q164.87-3.25 165.32-3.7 165.77-4.15 166.37-4.75L166.37-4.75 167.32-5.65Q168.02-6.35 168.82-7.3 169.62-8.25 170.17-9.15 170.72-10.05 170.72-10.55L170.72-10.55Q170.72-11 170.17-11L170.17-11Q169.62-11 168.7-10.4 167.77-9.8 166.8-8.95 165.82-8.1 165.12-7.3L165.12-7.3Q164.47-6.65 163.9-5.88 163.32-5.1 162.77-4.25L162.77-4.25Q162.12-3.3 161.87-2.6L161.87-2.6Q161.57-1.85 161.87-1.65Z" opacity="1" transform="matrix(1,0,0,1,0,0)" fill="#ffffff" class="wordmark-text-0" data-fill-palette-color="primary" id="text-0"></path></svg></g></svg></g></svg></g></svg></g><g transform="matrix(1,0,0,1,43.41977178854887,0)"><svg viewBox="0 0 105.16045642290226 62.27227610008627" height="62.27227610008627" width="105.16045642290226"><g><svg xmlns="http://www.w3.org/2000/svg" xmlns:xlink="http://www.w3.org/1999/xlink" version="1.1" viewBox="9.433999999999997 9.201682358651409 84.19506412065398 49.85731764134857" overflow="visible" enable-background="new 0 0 99.866 62.228" xml:space="preserve" x="0" y="0" height="62.27227610008627" width="105.16045642290226" class="icon-icon-0" data-fill-palette-color="accent" id="icon-0"><g fill="#412e27" data-fill-palette-color="accent"><g fill="#412e27" data-fill-palette-color="accent"><path d="M90.372 12.505c1.062 1.904 3.583 3.305 3.222 5.721-2.221 2.958-6.082 5.149-7.023 8.936-2.491 0.888-5.156 0.745-7.753 1.039 0.934 3.696-4.148 3.433-5.751 5.668-2.529 2.544-6.58 0.354-9.666 0.452-0.022 1.799 1.498 2.273 2.913 1.573 0.61 2.529 2.01 4.84 3.583 6.873 1.062 0.843-0.437 1.611-1.091 1.995-1.461-1.995-2.665-4.178-3.44-6.526-1.973-0.76-2.349-3.99-4.78-2.914-0.926-0.805-1.573-1.867-2.371-2.792-0.03 0.15-0.061 0.286-0.075 0.421l-0.903-0.128c0.309-2.115-0.459-4.321-1.468-6.203l-0.271 0.361c-2.183 3.749-7.475 0.158-10.84 1.935 2.401 4.261 7.166 5.713 11.924 5.879l0.166 0.851c-1.189 0.332-3.968 3.681-5.292 1.521-0.889-2.063-0.392 1.227-1.604 0.67-2.906 1.468-4.088-1.099-5.947-2.266 0.475 1.656 0.49 3.749 2.198 4.675 1.648 1.859 4.6 0.798 6.361 2.575 1.317 0.338 2.8-0.211 3.628-1.28l0.678 0.113c-0.022 1.317-0.067 3.952-0.091 5.27l-0.699-0.045c1.241-7.385-0.52-2.988-1.687-1.551-1.137 0.196-2.251-0.158-3.365-0.331-0.708 2.379-3.711 0.399-5.502 0.489 1.302 3.952 5.939 5.021 9.651 5.164 0.662-1.039 1.016-2.951 2.318-1.377-0.361 3.304-3.922 2.709-5.676 4.705-0.986 1.776-1.182 4.11-3.245 5.081 0.076-1.596 1.822-4.275-0.286-5.043-2.718-0.211-3.132-3.456-5.488-4.404-1.205-2.522-0.866-5.368-1.174-8.07-1.731 0.903-1.205 3.101-2.289 4.486-2.258 2.296-5.074 4.298-6.09 7.505-0.339 0.046-1.009 0.136-1.34 0.181 1.039-5.344 6.135-8.348 7.701-13.437-3.621 2.055-1.174-4.291-0.903-6.226-2.732 1.754-3.779 5.27-4.682 8.258-0.527 0.022-1.581 0.068-2.108 0.09 1.009-2.484 1.43-5.247 3.003-7.46-1.227-1.084-3.199-0.459-4.261-1.769-1.573-2.1-4.464-0.835-6.677-1.543-1.031-2.394-3.26-3.516-5.533-4.389-0.715-1.822 1.355-2.033 1.588-3.5l0.023-0.489c1.422 0.068 2.898 0 4.185 0.211 0.821-1.25 1.852-2.266 3.117-3.057-0.753-1.34-2.033-2.755-3.666-2.898-1.671-0.196-4.494-1.912-3.816 1.054l-0.045 0.008c-0.738-2.454-4.728-2.665-6.007-4.788 2.552 0.061 4.351 2.341 6.835 2.319 1.234-2.356-0.753-5.525-3.222-5.525l-0.008-0.421c3.342-0.015 6.873 0.903 9.929 1.573 4.441 3.056 8.936 6.06 13.452 9.033 1.355 1.265 3.162 0.06 4.682-0.173 0.007-0.007 0.022-0.007 0.03-0.007-0.452 0.7-0.971 1.355-1.416 2.055 1.769-0.045 0.843 1.408 0.67 2.461 0.903-0.407 2.221-2.304 2.454-0.354 1.98-0.248 4.193 0.384 5.661 1.747-0.15-2.379 2.183-0.098 3.094-1.513-0.323-2.386-0.934-4.735-1.596-7.046-0.271-0.015-0.806-0.045-1.076-0.06-1.107-2.138-3.418-3.064-5.496-4.02-0.745 1.393-0.775 3.305-2.793 3.32-1.859 1.28-0.188-2.198-1.807-1.897-2.311 6.797 1.596 2.221 3.877 2.266-0.384 0.791-1.054 1.408-1.844 1.799-0.806 0.399-1.731 0.564-2.605 0.421C40.682 16.495 43.7 12.182 40.9 9.223c2.161-0.301 3.079 2.657 2.514 4.359 0.806 2.123 2.883-0.286 4.321-0.369 2.228 0.105 4.479-0.203 6.632 0.535 1.476-1.189 2.438-3.35 4.667-3.711-0.233 2.085-2.401 3.124-3.342 4.886-0.949-0.098-1.897-0.279-2.854-0.339 0.73 1.423 2.379 1.762 3.674 2.454 0.564 1.919 0.564 3.877 0.218 5.827 5.902-0.512 10.313-5.089 14.755-8.604 2.612-2.785 6.76-3.003 10.237-3.884C84.554 11.293 87.745 11 90.372 12.505zM91.291 18.196c0.512-4.253-4.359-6.542-8.025-5.751-0.851 1.061-2.725 1.836-2.363 3.44C83.809 18.219 87.76 21.358 91.291 18.196zM88.4 20.71c-2.748 1.212-3.998-0.88-5.601-2.19-1.544 0.73-3.034 1.558-4.472 2.477-1.536-0.226-2.988-1.076-4.539-1.182 0.534-0.008 1.34-0.233 2.559-0.768 0.294-1.618-1.949-1.34-1.61-2.958 0.964-0.052 1.927-0.067 2.898-0.045-0.414 1.242-0.686 2.529-0.61 3.839 1.37-0.158 2.62-0.858 3.704-1.694 0.602-1.536-1.137-1.83-2.123-2.394 0.678-1.144 3.982-3.455 2.446-3.959-2.966 0.459-5.759 1.528-8.446 2.853 1.212 1.814-0.865 5.111 1.159 5.126-0.368-0.022-0.737 0-1.121 0.075-1.874 1.822 1.031 4.999 2.718 2.793 1.468-1.506 3.161 0.512 4.734 0.752 4.118-2.785 3.229 2.447 5.774 2.386C85.69 23.594 88.106 22.713 88.4 20.71zM82.912 27.26c1.626-1.091 1.317-4.946-2.612-2.514-1.445-0.158-2.574-1.174-3.854-1.588-0.941 0.768-2.575 1.076-2.477 2.574C77.003 25.92 79.909 26.876 82.912 27.26zM77.809 29.525c-0.377-1.648-2.266-1.739-3.553-1.136-1.936 0.918-3.923 1.935-6.219 1.332 0.316 1.468 0.655 2.928 0.881 4.419C72.133 33.244 74.413 30.263 77.809 29.525zM74.12 26.59c-0.535 0.068-1.611 0.203-2.146 0.263-2.101 0.459-4.186 0.956-6.278 1.423 0.226 0.271 0.678 0.813 0.903 1.084C69.182 28.743 72.682 29.277 74.12 26.59zM69.001 24.806c5.984 3.365 3.38-3.696 0.512-1.234 0.873-1.438 2.176-2.74 2.312-4.502-0.964-0.075-1.905-0.015-2.831 0.188C67.699 20.816 65.719 24.497 69.001 24.806zM70.251 18.37c1.633 0.708 3.116-2.115 0.948-2.13C70.597 16.608 68.828 17.978 70.251 18.37zM64.236 33.372c1.121-0.015 3.786 0.361 3.553-1.332-1.34-1.009-2.432-2.771-4.351-2.477C65.146 30.331 64.356 31.935 64.236 33.372zM67.962 18.979c-0.315 0.083-0.934 0.256-1.242 0.339-1.783 1.25-3.417 2.643-4.9 4.186 0.512 0.278 0.964 0.459 1.362 0.564-0.519 0.09-1.106 0.256-1.73 0.497-0.769 0.226-1.378 0.64-1.837 1.242 2.146 0.06 4.953-1.506 6.12 0.858 0.346-1.536-0.083-2.356-1.031-2.597C66.449 23.458 66.69 20.53 67.962 18.979zM63.573 26.62c-1.046-0.038-2.093-0.03-3.139 0.007 0.128 1.528 0.564 2.996 0.828 4.501-1.069-1.513-1.904-3.29-3.862-3.801 0.279 2.318 1.92 4.155 3.817 5.375 0.007-0.391 0.029-1.182 0.045-1.573 0.504 0.896 1.121 1.687 2.28 1.513C62.828 30.655 60.495 27.907 63.573 26.62zM50.393 53.675c-0.279-0.761 0.812-3.177-0.264-2.688-1.25 0.836-2.627 0.956-4.05 0.564C46.945 53.125 48.849 53.2 50.393 53.675zM45.356 33.387c-0.241 2.379 2.236 2.477 3.952 2.213C48.27 34.486 46.689 34.057 45.356 33.387zM40.727 32.574c-0.151-1.415 1.679-4.697 0.399-4.946-1.702 0.384-3.531 0.58-4.615 2.13C35.713 32.544 37.128 34.103 40.727 32.574zM41.743 26.417c-0.956-1.498-2.868-1.468-4.329-2.198 0.888-1.814-1.521-1.513-2.65-2.025 0.497 2.055 3.245 2.597 3.328 4.893C39.304 26.838 40.523 26.62 41.743 26.417zM39.485 22.096c-1.46-1.867-3.802-3.259-6.105-3.847C33.876 21.215 36.88 22.028 39.485 22.096zM35.646 25.069c-0.963-0.023-1.919 0.022-2.868 0.135-0.971 1.099-1.332 3.162-3.169 2.906-1.807-0.075-2.778 1.694-3.832 2.883 1.927 0.248 4.065-0.09 5.578 1.31 1.814-1.189 3.636-2.454 5.141-4.035-0.609-0.075-1.822-0.218-2.431-0.293C34.208 26.831 35.074 26.018 35.646 25.069zM33.372 23.601c1.581-3.229-2.16-6.865-5.359-5.269-0.143 1.942 2.868 1.686 2.409 3.749-1.543-1.648-2.951-1.362-3.915 0.647C28.795 22.954 31.054 23.624 33.372 23.601zM28.073 14.493c-0.113 2.484 2.552 3.576 4.675 3.026C31.084 16.653 29.872 15.004 28.073 14.493zM27.516 27.538c0.783-1.596 4.268 0.038 3.545-2.296-2.665-0.331-5.239-1.536-7.979-0.595-1.295 0.399-3.704 0.58-3.207 2.507 2.349-0.249 3.259 2.394 5.066 2.996C25.588 29.496 26.868 28.186 27.516 27.538zM27.35 14.568c0.52-3.244-4.449-0.783-6.06-3.019C20.364 14.944 25.431 14.771 27.35 14.568zM28.073 17.624c-0.361-1.505-1.039-2.913-2.853-2.25C23.021 17.172 26.733 17.436 28.073 17.624z" fill="#ffffff" data-fill-palette-color="accent"></path><path d="M63.731 49.64c2.123 1.024 3.787 3.146 3.538 5.601-2.024 0.301-2.597-1.521-1.701-3.019-0.911 0.144-2.018 0.813-2.462-0.414-7.686 2.206 0.099-11.382-6.338-10.155l-0.678-0.113c0.444-0.58 0.7-1.31 0.625-2.138 0.858-3.177 0.692-3.937 0.03-3.756l-0.166-0.851c0.347-0.64 0.55-1.302 0.655-1.972l0.903 0.128c-0.414 3.516 4.75 3.132 5.307 6.481C62.331 42.759 63.167 46.267 63.731 49.64z" fill="#ffffff" data-fill-palette-color="accent"></path><path d="M19.958 23.248l-0.023 0.489c-3.485 2.093-5.525-1.799-8.16-3.35-0.361-2.529-1.287-4.916-2.341-7.227 2.183-2.258 4.961-2.996 7.896-3.011l0.008 0.421c-0.572 0-1.175 0.173-1.769 0.564-1.303 0.512-2.605 1.016-3.967 1.363-0.166 3.139 0.143 6.985 3.402 8.408C16.059 22.773 17.956 23.157 19.958 23.248z" fill="#ffffff" data-fill-palette-color="accent"></path><path d="M19.777 18.558c0.113 0.512 0.338 1.167 0.692 1.995-6.888 1.25-3.041-1.34-0.632-0.828 0.038-0.437 0-0.821-0.105-1.159L19.777 18.558z" fill="#ffffff" data-fill-palette-color="accent"></path></g></g></svg></g></svg></g><g></g></svg></g></svg></g></svg></g></svg></g><defs></defs></svg><rect width="320" height="360" fill="none" stroke="none" visibility="hidden"></rect></g></svg></g></svg>